<?xml version="1.0" encoding="utf-8"?>
<!-- Generator: Adobe Illustrator 16.0.2, SVG Export Plug-In . SVG Version: 6.00 Build 0)  -->
<!DOCTYPE svg PUBLIC "-//W3C//DTD SVG 1.1//EN" "http://www.w3.org/Graphics/SVG/1.1/DTD/svg11.dtd">
<svg version="1.1" id="Слой_1" xmlns="http://www.w3.org/2000/svg" xmlns:xlink="http://www.w3.org/1999/xlink" x="0px" y="0px"
	 width="24px" height="24px" viewBox="316.16 115.56 24 24" enable-background="new 316.16 115.56 24 24" xml:space="preserve">
<g>
	<path d="M326.803,138.469c-1.34-1.454-8.11-8.728-8.11-13.442c0-5.221,4.247-9.467,9.468-9.467s9.467,4.247,9.467,9.47
		c0,4.702-6.754,11.95-8.107,13.437C328.143,139.923,328.143,139.923,326.803,138.469L326.803,138.469z M328.16,116.804
		c-4.512,0-8.182,3.671-8.182,8.182c0,4.264,5.055,9.703,8.076,12.952l0.107,0.115l0.113-0.12c3.02-3.252,8.07-8.693,8.07-12.947
		C336.342,120.475,332.673,116.804,328.16,116.804L328.16,116.804z M328.16,129.727c-2.56,0-4.644-2.082-4.644-4.643
		c0-2.559,2.081-4.641,4.644-4.641c2.559,0,4.643,2.082,4.643,4.641C332.803,127.645,330.719,129.727,328.16,129.727L328.16,129.727
		z M328.16,121.773c-1.844,0-3.346,1.499-3.346,3.343c0,1.844,1.499,3.343,3.346,3.343c1.844,0,3.342-1.501,3.342-3.343
		C331.505,123.274,330.004,121.773,328.16,121.773L328.16,121.773z"/>
</g>
</svg>
