<?xml version="1.0" encoding="utf-8"?>
<!-- Generator: Adobe Illustrator 16.0.2, SVG Export Plug-In . SVG Version: 6.00 Build 0)  -->
<!DOCTYPE svg PUBLIC "-//W3C//DTD SVG 1.1//EN" "http://www.w3.org/Graphics/SVG/1.1/DTD/svg11.dtd">
<svg version="1.1" id="Layer_5" xmlns="http://www.w3.org/2000/svg" xmlns:xlink="http://www.w3.org/1999/xlink" x="0px" y="0px"
	 width="24px" height="24px" viewBox="488 244 24 24" enable-background="new 488 244 24 24" xml:space="preserve">
<g>
	<path d="M510.771,257.574c0.088-0.562,0.133-1.137,0.133-1.724c0-6.132-4.971-11.104-11.104-11.104
		c-0.561,0-1.11,0.042-1.648,0.122c-0.985-0.552-2.121-0.869-3.33-0.869c-3.768,0-6.822,3.054-6.822,6.821
		c0,1.187,0.303,2.302,0.836,3.273c-0.091,0.572-0.139,1.158-0.139,1.756c0,6.132,4.971,11.104,11.104,11.104
		c0.479,0,0.949-0.03,1.412-0.089c1.079,0.717,2.374,1.135,3.767,1.135c3.768,0,6.821-3.055,6.821-6.822
		C511.801,259.855,511.424,258.621,510.771,257.574z M509.111,265.309c-1.104,1.104-2.571,1.712-4.132,1.712
		c-1.153,0-2.269-0.336-3.226-0.973l-0.303-0.201l-0.361,0.047c-0.425,0.053-0.858,0.08-1.289,0.08
		c-1.367,0-2.693-0.268-3.941-0.795c-1.205-0.51-2.287-1.24-3.218-2.17s-1.661-2.014-2.171-3.219
		c-0.527-1.248-0.795-2.573-0.795-3.941c0-0.535,0.043-1.074,0.127-1.602l0.053-0.331l-0.161-0.293
		c-0.468-0.854-0.716-1.823-0.716-2.803c0-1.561,0.607-3.028,1.711-4.132s2.571-1.711,4.133-1.711c0.998,0,1.984,0.257,2.852,0.744
		l0.291,0.164l0.332-0.049c0.496-0.074,1.002-0.111,1.504-0.111c1.367,0,2.693,0.268,3.941,0.795c1.205,0.51,2.288,1.24,3.219,2.17
		c0.93,0.93,1.66,2.013,2.17,3.219c0.527,1.248,0.795,2.574,0.795,3.941c0,0.526-0.041,1.056-0.121,1.574l-0.057,0.359l0.193,0.31
		c0.576,0.925,0.881,1.991,0.881,3.085C510.822,262.738,510.215,264.206,509.111,265.309z"/>
	<path d="M501.51,254.786l-2.314-0.523c-1.262-0.281-1.893-0.719-1.893-1.315c0-0.427,0.174-0.773,0.523-1.038
		c0.349-0.264,0.839-0.396,1.47-0.396c0.743,0,1.346,0.158,1.808,0.472c0.135,0.09,0.428,0.377,0.879,0.86
		c0.293,0.315,0.607,0.472,0.945,0.472c0.35,0,0.648-0.098,0.896-0.295c0.247-0.197,0.371-0.464,0.371-0.801
		c0-0.775-0.513-1.45-1.537-2.023c-0.969-0.54-2.027-0.81-3.176-0.81c-1.33,0-2.434,0.281-3.313,0.843
		c-1.024,0.664-1.537,1.619-1.537,2.867c0,1.709,0.991,2.816,2.974,3.322l3.126,0.793c0.787,0.202,1.182,0.623,1.182,1.265
		c0,0.427-0.189,0.792-0.571,1.097c-0.415,0.336-0.964,0.506-1.647,0.506c-0.797,0-1.436-0.191-1.918-0.574
		c-0.111-0.078-0.42-0.427-0.925-1.045c-0.313-0.383-0.667-0.574-1.06-0.574c-0.336,0-0.613,0.107-0.832,0.32
		c-0.219,0.215-0.328,0.49-0.328,0.826c0,0.766,0.41,1.439,1.229,2.024c0.955,0.697,2.234,1.046,3.84,1.046
		c1.617,0,2.863-0.365,3.738-1.097c0.83-0.675,1.246-1.585,1.246-2.731C504.686,256.433,503.627,255.269,501.51,254.786z"/>
</g>
</svg>
